<mxfile host="65bd71144e">
    <diagram id="iLe7Kph_KV_ALAC8Iie2" name="Page-1">
        <mxGraphModel dx="844" dy="895" grid="1" gridSize="10" guides="1" tooltips="1" connect="1" arrows="1" fold="1" page="1" pageScale="1" pageWidth="827" pageHeight="1169" math="0" shadow="0">
            <root>
                <mxCell id="0"/>
                <mxCell id="1" parent="0"/>
                <mxCell id="92" value="" style="rounded=0;whiteSpace=wrap;html=1;" vertex="1" parent="1">
                    <mxGeometry x="200" y="130" width="480" height="470" as="geometry"/>
                </mxCell>
                <mxCell id="83" style="edgeStyle=none;jumpSize=6;html=1;endArrow=block;endFill=0;endSize=20;strokeWidth=1;" parent="1" source="49" target="58" edge="1">
                    <mxGeometry relative="1" as="geometry"/>
                </mxCell>
                <mxCell id="49" value="Usuario" style="swimlane;startSize=20;" parent="1" vertex="1">
                    <mxGeometry x="240" y="170" width="160" height="140" as="geometry">
                        <mxRectangle x="320" y="660" width="130" height="23" as="alternateBounds"/>
                    </mxGeometry>
                </mxCell>
                <mxCell id="50" value="+ValoresDeseadosACalcular" style="text;html=1;strokeColor=none;fillColor=none;align=left;verticalAlign=middle;whiteSpace=wrap;rounded=0;" parent="49" vertex="1">
                    <mxGeometry y="50" width="160" height="20" as="geometry"/>
                </mxCell>
                <mxCell id="56" value="+EjecutarPrograma()" style="text;html=1;strokeColor=none;fillColor=none;align=left;verticalAlign=middle;whiteSpace=wrap;rounded=0;" parent="49" vertex="1">
                    <mxGeometry y="90" width="160" height="20" as="geometry"/>
                </mxCell>
                <mxCell id="57" value="+IntroducirValor()" style="text;html=1;strokeColor=none;fillColor=none;align=left;verticalAlign=middle;whiteSpace=wrap;rounded=0;" parent="49" vertex="1">
                    <mxGeometry y="110" width="160" height="20" as="geometry"/>
                </mxCell>
                <mxCell id="84" value="" style="endArrow=none;html=1;endSize=20;strokeWidth=1;jumpSize=6;" parent="49" edge="1">
                    <mxGeometry width="50" height="50" relative="1" as="geometry">
                        <mxPoint y="79.99999999999997" as="sourcePoint"/>
                        <mxPoint x="160" y="79.99999999999997" as="targetPoint"/>
                        <Array as="points">
                            <mxPoint x="30" y="79.99999999999997"/>
                        </Array>
                    </mxGeometry>
                </mxCell>
                <mxCell id="90" value="+OperaciÃ³nDeseadaRealizar" style="text;html=1;strokeColor=none;fillColor=none;align=left;verticalAlign=middle;whiteSpace=wrap;rounded=0;" parent="49" vertex="1">
                    <mxGeometry y="30" width="160" height="20" as="geometry"/>
                </mxCell>
                <mxCell id="76" style="edgeStyle=none;html=1;endArrow=diamondThin;endFill=1;jumpSize=6;strokeWidth=1;endSize=20;" parent="1" source="58" target="67" edge="1">
                    <mxGeometry relative="1" as="geometry"/>
                </mxCell>
                <mxCell id="58" value="Consola" style="swimlane;" parent="1" vertex="1">
                    <mxGeometry x="480" y="200" width="160" height="80" as="geometry">
                        <mxRectangle x="320" y="660" width="130" height="23" as="alternateBounds"/>
                    </mxGeometry>
                </mxCell>
                <mxCell id="59" value="+MostrarDatosEnPantalla()" style="text;html=1;strokeColor=none;fillColor=none;align=left;verticalAlign=middle;whiteSpace=wrap;rounded=0;" parent="58" vertex="1">
                    <mxGeometry y="30" width="160" height="20" as="geometry"/>
                </mxCell>
                <mxCell id="60" value="+RecogerDatoIntroducido()" style="text;html=1;strokeColor=none;fillColor=none;align=left;verticalAlign=middle;whiteSpace=wrap;rounded=0;" parent="58" vertex="1">
                    <mxGeometry y="50" width="160" height="20" as="geometry"/>
                </mxCell>
                <mxCell id="67" value="Programa" style="swimlane;" parent="1" vertex="1">
                    <mxGeometry x="480" y="360" width="160" height="200" as="geometry">
                        <mxRectangle x="320" y="660" width="130" height="23" as="alternateBounds"/>
                    </mxGeometry>
                </mxCell>
                <mxCell id="68" value="+EnviarOpcionesEnValor()" style="text;html=1;strokeColor=none;fillColor=none;align=left;verticalAlign=middle;whiteSpace=wrap;rounded=0;" parent="67" vertex="1">
                    <mxGeometry y="70" width="160" height="20" as="geometry"/>
                </mxCell>
                <mxCell id="70" value="-CalcularResta()" style="text;html=1;strokeColor=none;fillColor=none;align=left;verticalAlign=middle;whiteSpace=wrap;rounded=0;" parent="67" vertex="1">
                    <mxGeometry y="130" width="160" height="20" as="geometry"/>
                </mxCell>
                <mxCell id="87" value="+EnviarOpcionesEnValor()" style="text;html=1;strokeColor=none;fillColor=none;align=left;verticalAlign=middle;whiteSpace=wrap;rounded=0;" parent="67" vertex="1">
                    <mxGeometry y="30" width="160" height="20" as="geometry"/>
                </mxCell>
                <mxCell id="88" value="" style="endArrow=none;html=1;endSize=20;strokeWidth=1;jumpSize=6;" parent="67" edge="1">
                    <mxGeometry width="50" height="50" relative="1" as="geometry">
                        <mxPoint y="59.999999999999886" as="sourcePoint"/>
                        <mxPoint x="160" y="59.999999999999886" as="targetPoint"/>
                        <Array as="points">
                            <mxPoint x="30" y="60"/>
                        </Array>
                    </mxGeometry>
                </mxCell>
                <mxCell id="79" value="+GuardarValorIntroducido()" style="text;html=1;strokeColor=none;fillColor=none;align=left;verticalAlign=middle;whiteSpace=wrap;rounded=0;" parent="67" vertex="1">
                    <mxGeometry y="90" width="160" height="20" as="geometry"/>
                </mxCell>
                <mxCell id="69" value="-CalcularSuma()" style="text;html=1;strokeColor=none;fillColor=none;align=left;verticalAlign=middle;whiteSpace=wrap;rounded=0;" parent="67" vertex="1">
                    <mxGeometry y="110" width="160" height="20" as="geometry"/>
                </mxCell>
                <mxCell id="71" value="-CalcularMultiplicacion()" style="text;html=1;strokeColor=none;fillColor=none;align=left;verticalAlign=middle;whiteSpace=wrap;rounded=0;" parent="67" vertex="1">
                    <mxGeometry y="150" width="160" height="20" as="geometry"/>
                </mxCell>
                <mxCell id="72" value="-CalcularDivision()" style="text;html=1;strokeColor=none;fillColor=none;align=left;verticalAlign=middle;whiteSpace=wrap;rounded=0;" parent="67" vertex="1">
                    <mxGeometry y="170" width="160" height="20" as="geometry"/>
                </mxCell>
            </root>
        </mxGraphModel>
    </diagram>
</mxfile>